<svg width="14" height="14" viewBox="0 0 14 14" fill="none" xmlns="http://www.w3.org/2000/svg">
<path d="M13.3 0.710002C13.2075 0.617299 13.0976 0.543751 12.9766 0.49357C12.8557 0.443388 12.726 0.417558 12.595 0.417558C12.464 0.417558 12.3344 0.443388 12.2134 0.49357C12.0924 0.543751 11.9825 0.617299 11.89 0.710002L7 5.59L2.11 0.700002C2.01742 0.60742 1.90751 0.53398 1.78655 0.483875C1.66558 0.43377 1.53593 0.407982 1.405 0.407982C1.27407 0.407982 1.14442 0.43377 1.02346 0.483875C0.902495 0.53398 0.792584 0.60742 0.700002 0.700002C0.60742 0.792584 0.53398 0.902495 0.483875 1.02346C0.43377 1.14442 0.407982 1.27407 0.407982 1.405C0.407982 1.53593 0.43377 1.66558 0.483875 1.78655C0.53398 1.90751 0.60742 2.01742 0.700002 2.11L5.59 7L0.700002 11.89C0.60742 11.9826 0.53398 12.0925 0.483875 12.2135C0.43377 12.3344 0.407982 12.4641 0.407982 12.595C0.407982 12.7259 0.43377 12.8556 0.483875 12.9765C0.53398 13.0975 0.60742 13.2074 0.700002 13.3C0.792584 13.3926 0.902495 13.466 1.02346 13.5161C1.14442 13.5662 1.27407 13.592 1.405 13.592C1.53593 13.592 1.66558 13.5662 1.78655 13.5161C1.90751 13.466 2.01742 13.3926 2.11 13.3L7 8.41L11.89 13.3C11.9826 13.3926 12.0925 13.466 12.2135 13.5161C12.3344 13.5662 12.4641 13.592 12.595 13.592C12.7259 13.592 12.8556 13.5662 12.9765 13.5161C13.0975 13.466 13.2074 13.3926 13.3 13.3C13.3926 13.2074 13.466 13.0975 13.5161 12.9765C13.5662 12.8556 13.592 12.7259 13.592 12.595C13.592 12.4641 13.5662 12.3344 13.5161 12.2135C13.466 12.0925 13.3926 11.9826 13.3 11.89L8.41 7L13.3 2.11C13.68 1.73 13.68 1.09 13.3 0.710002Z" fill="#999"/>
</svg>
