<svg width="24" height="24" viewBox="0 0 24 24" fill="none" xmlns="http://www.w3.org/2000/svg">
<path fill-rule="evenodd" clip-rule="evenodd" d="M8.25033 1.46903C8.25027 1.19728 8.34632 0.933566 8.52275 0.721046C8.69918 0.508526 8.94553 0.359793 9.22149 0.299192C11.0501 -0.100539 12.949 -0.099719 14.7773 0.301592C15.0534 0.361957 15.3001 0.510589 15.4768 0.723131C15.6534 0.935673 15.7497 1.19952 15.7497 1.47143V3.68754C15.7497 3.89815 15.8074 4.10505 15.9171 4.28744C16.0268 4.46984 16.1846 4.6213 16.3746 4.7266C16.5646 4.83191 16.7802 4.88734 16.9996 4.88734C17.219 4.88734 17.4345 4.8319 17.6245 4.7266L19.6256 3.61674C19.8711 3.48071 20.1575 3.42882 20.4377 3.46959C20.718 3.51036 20.9755 3.64137 21.168 3.84111C22.44 5.16237 23.3885 6.73979 23.944 8.45809C24.0279 8.71795 24.0173 8.99747 23.914 9.2508C23.8106 9.50413 23.6207 9.71623 23.3753 9.8523L21.3742 10.961C21.1842 11.0663 21.0264 11.2177 20.9167 11.4001C20.807 11.5825 20.7493 11.7894 20.7493 12C20.7493 12.2106 20.807 12.4175 20.9167 12.5999C21.0264 12.7823 21.1842 12.9338 21.3742 13.0391L23.374 14.1465C23.6192 14.2825 23.8089 14.4944 23.9122 14.7475C24.0156 15.0006 24.0263 15.2798 23.9427 15.5395C23.391 17.2602 22.4426 18.8395 21.168 20.1601C20.9753 20.3597 20.7177 20.4904 20.4375 20.531C20.1572 20.5715 19.8709 20.5195 19.6256 20.3833L17.6245 19.2734C17.4345 19.1681 17.219 19.1127 16.9996 19.1127C16.7802 19.1127 16.5646 19.1681 16.3746 19.2734C16.1846 19.3787 16.0268 19.5302 15.9171 19.7126C15.8074 19.895 15.7497 20.1019 15.7497 20.3125V22.5322C15.7494 22.8039 15.653 23.0675 15.4764 23.2798C15.2997 23.4921 15.0532 23.6405 14.7773 23.7008C12.9486 24.1005 11.0497 24.0997 9.22149 23.6984C8.94553 23.6378 8.69918 23.4891 8.52275 23.2766C8.34632 23.0641 8.25027 22.8003 8.25033 22.5286V20.3125C8.25032 20.1019 8.19256 19.895 8.08286 19.7126C7.97316 19.5302 7.81537 19.3787 7.62537 19.2734C7.43536 19.1681 7.21983 19.1127 7.00043 19.1127C6.78103 19.1127 6.56549 19.1681 6.37549 19.2734L4.37441 20.3833C4.12892 20.5193 3.84255 20.5712 3.56229 20.5304C3.28203 20.4897 3.02453 20.3587 2.83205 20.1589C2.19791 19.5005 1.64242 18.7761 1.17594 17.9992C0.708405 17.2227 0.332771 16.3985 0.0560377 15.5419C-0.0278709 15.2821 -0.0172907 15.0026 0.0860427 14.7492C0.189376 14.4959 0.379327 14.2838 0.624738 14.1477L2.62456 13.0391C2.81456 12.9338 2.97233 12.7823 3.08202 12.5999C3.19171 12.4175 3.24946 12.2106 3.24946 12C3.24946 11.7894 3.19171 11.5825 3.08202 11.4001C2.97233 11.2177 2.81456 11.0663 2.62456 10.961L0.627238 9.8535C0.381866 9.71766 0.191835 9.50584 0.088284 9.25276C-0.0152668 8.99967 -0.0261961 8.72032 0.0572875 8.46049C0.609161 6.74023 1.55755 5.16138 2.83205 3.84111C3.02446 3.64165 3.28172 3.51083 3.56171 3.47007C3.84169 3.4293 4.1278 3.48102 4.37316 3.61674L6.37549 4.7266C6.56549 4.8319 6.78103 4.88734 7.00043 4.88734C7.21983 4.88734 7.43536 4.83191 7.62537 4.7266C7.81537 4.6213 7.97316 4.46984 8.08286 4.28744C8.19256 4.10505 8.25032 3.89815 8.25033 3.68754V1.46903ZM12 15.5995C12.9945 15.5995 13.9482 15.2203 14.6514 14.5453C15.3546 13.8702 15.7497 12.9547 15.7497 12C15.7497 11.0454 15.3546 10.1298 14.6514 9.45477C13.9482 8.77973 12.9945 8.4005 12 8.4005C11.0055 8.4005 10.0518 8.77973 9.34858 9.45477C8.64538 10.1298 8.25033 11.0454 8.25033 12C8.25033 12.9547 8.64538 13.8702 9.34858 14.5453C10.0518 15.2203 11.0055 15.5995 12 15.5995Z" fill="#DDDDDD"/>
</svg>
